<svg width="46" height="35" viewBox="0 0 46 35" fill="none" xmlns="http://www.w3.org/2000/svg">
<path d="M45.5 9.19344V3.19612C45.5 1.9775 44.5367 0.989746 43.3484 0.989746H2.65158C1.46332 0.989746 0.5 1.9775 0.5 3.19612V9.19344H45.5Z" fill="#97E8EC"/>
<path d="M0.5 15.3462V32.6235C0.5 33.8421 1.46332 34.8301 2.65158 34.8301H43.3484C44.5367 34.8301 45.5 33.8421 45.5 32.6235V15.3462H0.5ZM11.6182 29.897H6.5C5.67163 29.897 5 29.2083 5 28.3588C5 27.5094 5.67163 26.8206 6.5 26.8206H11.6182C12.4465 26.8206 13.1182 27.5094 13.1182 28.3588C13.1182 29.2083 12.4465 29.897 11.6182 29.897ZM16.7356 24.1288H6.5C5.67163 24.1288 5 23.44 5 22.5906C5 21.7411 5.67163 21.0524 6.5 21.0524H16.7356C17.564 21.0524 18.2356 21.7411 18.2356 22.5906C18.2356 23.44 17.564 24.1288 16.7356 24.1288Z" fill="#97E8EC"/>
</svg>
