<svg width="54" height="54" viewBox="0 0 54 54" fill="none" xmlns="http://www.w3.org/2000/svg">
<g clip-path="url(#clip0_0_227)">
<path d="M46.3337 8.08165C41.4375 3.184 34.4103 0 27.0095 0C20.6442 0 14.4119 2.33909 9.59787 6.48411L7.24023 2.55382C6.89418 1.97912 6.22361 1.69172 5.57171 1.81691C4.91359 1.9498 4.41303 2.48126 4.31716 3.14402L2.08006 18.8052C1.92745 19.8632 2.84682 20.7414 3.86913 20.5958L19.5288 18.3587C20.1932 18.263 20.7246 17.7624 20.8575 17.1058C20.9904 16.4491 20.6937 15.7802 20.119 15.4357L16.3864 13.1955C21.4887 9.19687 26.8433 9.54671 27.1608 9.49219C33.0718 9.49219 36.9991 12.1743 39.2517 14.4283C42.5547 17.7314 44.5199 22.391 44.5076 26.8899C44.5076 27.7865 45.2316 28.4766 46.0896 28.4766H52.4178C53.2891 28.4766 53.9967 27.772 53.9998 26.9008C54.0276 19.6302 51.3765 13.1228 46.3337 8.08165Z" fill="#2ABECE"/>
<path d="M50.1339 33.4182L34.4742 35.6553C33.8098 35.7511 33.2784 36.2516 33.1455 36.9083C33.0126 37.5649 33.3093 38.2338 33.884 38.5784L37.6042 40.8124C34.5699 43.1885 30.6921 44.5188 26.8915 44.5079C20.9342 44.5867 17.01 41.8321 14.7482 39.5718C11.4452 36.2686 9.48 31.609 9.49234 27.1101C9.49234 26.2135 8.7683 25.5234 7.91031 25.5234H1.58219C0.710804 25.5234 0.00321464 26.228 0.000156046 27.0992C-0.0276877 34.3698 2.62348 40.8772 7.66626 45.9184C12.5322 50.7857 19.1171 53.8126 26.9906 54C33.3558 54 39.585 51.6609 44.3991 47.5189L46.7629 51.4601C47.1089 52.0348 47.7763 52.3253 48.4314 52.197C49.0895 52.0641 49.5901 51.5327 49.686 50.8699L51.9231 35.2087C52.0757 34.1497 51.146 33.2612 50.1339 33.4182Z" fill="#B6E0FF"/>
</g>
<defs>
<clipPath id="clip0_0_227">
<rect width="54" height="54" fill="white"/>
</clipPath>
</defs>
</svg>
