<svg width="54" height="54" viewBox="0 0 54 54" fill="none" xmlns="http://www.w3.org/2000/svg">
<path d="M25.4019 0.311612C21.3196 1.96602 11.8622 5.96171 7.20688 6.9191C6.17824 7.13065 5.44415 8.04251 5.44415 9.09265V22.559C5.44415 33.1189 10.1992 43.1175 18.3907 49.7819L20.919 51.8387C24.4608 54.7203 29.539 54.7203 33.0809 51.8387L35.6092 49.7819C43.8007 43.1175 48.5557 33.1185 48.5557 22.5586V9.09265C48.5557 8.04251 47.8217 7.13065 46.793 6.9191C42.1377 5.96171 32.6803 1.96602 28.5981 0.311612C27.5728 -0.103871 26.4272 -0.103871 25.4019 0.311612Z" fill="url(#paint0_linear_0_239)"/>
<path d="M26.9999 44.9281C36.9013 44.9281 44.928 36.9014 44.928 27C44.928 17.0986 36.9013 9.0719 26.9999 9.0719C17.0985 9.0719 9.07178 17.0986 9.07178 27C9.07178 36.9014 17.0985 44.9281 26.9999 44.9281Z" fill="url(#paint1_linear_0_239)"/>
<path d="M42.9076 27C42.9076 31.7987 40.7829 36.101 37.4228 39.0176C34.6312 41.4408 30.987 41.4252 27.0001 41.4252C23.0533 41.4252 19.4423 41.4703 16.6618 39.0904C13.253 36.1729 11.0925 31.8387 11.0925 27C11.0925 18.2145 18.2146 11.0924 27.0001 11.0924C35.7856 11.0924 42.9076 18.2145 42.9076 27Z" fill="url(#paint2_linear_0_239)"/>
<path d="M27.035 13.5463C22.9152 13.5463 19.7634 16.6981 19.7634 20.8178C19.7634 23.0189 20.5292 24.9967 22.0454 26.3622L34.8776 39.1944C35.4154 38.8317 36.9342 39.4414 37.4225 39.0175C40.7825 36.1009 42.9074 31.7987 42.9074 27C42.9074 26.7089 42.899 26.4198 42.8836 26.1325L32.5793 15.8282C31.2139 14.312 29.2361 13.5463 27.035 13.5463Z" fill="url(#paint3_linear_0_239)"/>
<path d="M26.9999 28.2424C31.1197 28.2424 34.4595 24.9026 34.4595 20.7827C34.4595 16.6629 31.1197 13.3231 26.9999 13.3231C22.88 13.3231 19.5402 16.6629 19.5402 20.7827C19.5402 24.9026 22.88 28.2424 26.9999 28.2424Z" fill="url(#paint4_linear_0_239)"/>
<path d="M36.8975 33.3953C38.9173 34.6912 39.1178 37.5802 37.2878 39.1325C37.2667 39.1504 37.2456 39.1682 37.2244 39.186C34.4595 41.5094 30.8932 42.9073 27 42.9073C23.0683 42.9073 19.471 41.4811 16.6948 39.1174C16.684 39.1082 16.6732 39.099 16.6624 39.0898C14.8428 37.5339 15.0581 34.649 17.0771 33.3628C19.933 31.5436 23.3243 30.4901 26.9614 30.4901C30.622 30.4901 34.0311 31.5562 36.8975 33.3953Z" fill="url(#paint5_linear_0_239)"/>
<defs>
<linearGradient id="paint0_linear_0_239" x1="7.62533" y1="3.25811" x2="47.5051" y2="43.1378" gradientUnits="userSpaceOnUse">
<stop stop-color="#013A43"/>
<stop offset="1" stop-color="#4C8DF1"/>
</linearGradient>
<linearGradient id="paint1_linear_0_239" x1="41.6459" y1="41.6461" x2="12.5795" y2="12.5797" gradientUnits="userSpaceOnUse">
<stop stop-color="white"/>
<stop offset="1" stop-color="#4C8DF1"/>
</linearGradient>
<linearGradient id="paint2_linear_0_239" x1="23.321" y1="23.3209" x2="36.2727" y2="36.2726" gradientUnits="userSpaceOnUse">
<stop stop-color="#0E3E4D"/>
<stop offset="1" stop-color="#4256AC"/>
</linearGradient>
<linearGradient id="paint3_linear_0_239" x1="39.0018" y1="32.7848" x2="24.0585" y2="17.8414" gradientUnits="userSpaceOnUse">
<stop stop-color="#4256AC" stop-opacity="0"/>
<stop offset="1" stop-color="#1B1464"/>
</linearGradient>
<linearGradient id="paint4_linear_0_239" x1="5.45299" y1="-0.764114" x2="42.2522" y2="36.0351" gradientUnits="userSpaceOnUse">
<stop stop-color="#EBEFF0"/>
<stop offset="1" stop-color="#E3E5E4"/>
</linearGradient>
<linearGradient id="paint5_linear_0_239" x1="24.6322" y1="32.1761" x2="29.2356" y2="40.4436" gradientUnits="userSpaceOnUse">
<stop stop-color="#EBEFF0"/>
<stop offset="1" stop-color="#E3E5E4"/>
</linearGradient>
</defs>
</svg>
