<svg width="62" height="49" viewBox="0 0 62 49" fill="none" xmlns="http://www.w3.org/2000/svg">
<path d="M52.2696 4.99384L46.0552 6.65897L44.8269 2.0746L1.9375 13.5668L9.30778 41.073L13.994 39.8173L15.6319 45.9298C15.8582 46.7745 16.7248 47.2748 17.5695 47.0485L60.4588 35.5563C61.3035 35.33 61.8038 34.4634 61.5775 33.6187L54.2072 6.1125C53.9809 5.26786 53.1143 4.76752 52.2696 4.99384Z" fill="url(#paint0_linear_0_234)"/>
<path d="M44.4175 0.546488L1.52812 12.0387C0.684192 12.2648 0.183329 13.1323 0.40946 13.9762L7.77974 41.4825C8.00587 42.3264 8.87339 42.8273 9.71732 42.6012L52.6067 31.109C53.4506 30.8829 53.9515 30.0153 53.7254 29.1714L46.3551 1.66515C46.1289 0.821221 45.2614 0.320357 44.4175 0.546488ZM17.3501 34.0046L14.2939 34.8235C13.4492 35.0498 12.5826 34.5495 12.3563 33.7049C12.1299 32.8602 12.6303 31.9936 13.4749 31.7673L16.5312 30.9484C17.3758 30.722 18.2424 31.2224 18.4688 32.067C18.6951 32.9117 18.1948 33.7783 17.3501 34.0046ZM26.5189 31.5478L23.4626 32.3668C22.618 32.5931 21.7513 32.0927 21.525 31.2481C21.2987 30.4035 21.799 29.5368 22.6437 29.3105L25.6999 28.4916C26.5446 28.2653 27.4112 28.7656 27.6375 29.6103C27.8638 30.4549 27.3635 31.3215 26.5189 31.5478ZM24.3618 17.3853C24.5882 18.2299 24.0878 19.0965 23.2432 19.3228L11.0182 22.5985C10.1735 22.8248 9.30691 22.3245 9.08059 21.4799L8.26167 18.4236C8.03535 17.579 8.53569 16.7123 9.38034 16.486L21.6053 13.2103C22.45 12.984 23.3166 13.4844 23.5429 14.329L24.3618 17.3853ZM35.6876 29.0911L32.6314 29.91C31.7867 30.1363 30.9201 29.636 30.6938 28.7913C30.4674 27.9467 30.9678 27.0801 31.8124 26.8538L34.8687 26.0348C35.7133 25.8085 36.5799 26.3089 36.8063 27.1535C37.0326 27.9981 36.5322 28.8648 35.6876 29.0911ZM44.8564 26.6343L41.8001 27.4532C40.9555 27.6796 40.0888 27.1792 39.8625 26.3346C39.6362 25.4899 40.1365 24.6233 40.9812 24.397L44.0374 23.5781C44.8821 23.3518 45.7487 23.8521 45.975 24.6967C46.2013 25.5414 45.701 26.408 44.8564 26.6343ZM40.7618 11.3531L31.593 13.8098C30.7484 14.0362 29.8817 13.5358 29.6554 12.6912C29.4291 11.8465 29.9294 10.9799 30.7741 10.7536L39.9428 8.29683C40.7875 8.0705 41.6541 8.57085 41.8804 9.41549C42.1067 10.2601 41.6064 11.1268 40.7618 11.3531Z" fill="url(#paint1_linear_0_234)"/>
<defs>
<linearGradient id="paint0_linear_0_234" x1="36.671" y1="41.9303" x2="27.2534" y2="6.78339" gradientUnits="userSpaceOnUse">
<stop stop-color="#ADDCFF"/>
<stop offset="0.5028" stop-color="#EAF6FF"/>
<stop offset="1" stop-color="#EAF6FF"/>
</linearGradient>
<linearGradient id="paint1_linear_0_234" x1="31.162" y1="36.8551" x2="22.9728" y2="6.29257" gradientUnits="userSpaceOnUse">
<stop stop-color="#012B3B"/>
<stop offset="1" stop-color="#00C0FF"/>
</linearGradient>
</defs>
</svg>
