<svg width="40" height="40" viewBox="0 0 40 40" fill="none" xmlns="http://www.w3.org/2000/svg">
<circle cx="20" cy="20" r="20" fill="#CAEAF4"/>
<path d="M28.6247 18.5653H25.9106V15.8519C25.9106 15.6449 25.7426 15.4766 25.536 15.4766H24.7632C24.5551 15.4766 24.3871 15.6449 24.3871 15.8519V18.5653H21.673C21.4663 18.5653 21.2976 18.734 21.2976 18.9414V19.7142C21.2976 19.9216 21.4663 20.0896 21.673 20.0896H24.3871V22.8044C24.3871 23.0118 24.5551 23.1798 24.7632 23.1798H25.536C25.7426 23.1798 25.9106 23.0118 25.9106 22.8044V20.0892H28.6247C28.8314 20.0892 29.0001 19.9212 29.0001 19.7139V18.941C29.0001 18.7337 28.8314 18.5653 28.6247 18.5653Z" fill="#174B5C"/>
<path d="M19.5038 20.9446C18.933 20.5403 18.4142 19.9474 18.4051 19.7654C18.4051 19.4337 18.4348 19.2751 19.1787 18.6956C20.1404 17.9426 20.6701 16.9527 20.6701 15.9067C20.6701 14.9583 20.3804 14.1158 19.8872 13.524H20.2698C20.3489 13.524 20.4266 13.4994 20.4898 13.4531L21.5575 12.6796C21.6901 12.5846 21.7457 12.4151 21.6951 12.2601C21.6442 12.1055 21.5011 12 21.3381 12H16.5632C16.0408 12 15.5101 12.0921 14.9891 12.2713C13.2491 12.8714 12.0322 14.3542 12.0322 15.8764C12.0322 18.0329 13.7029 19.6674 15.936 19.7187C15.8923 19.8896 15.8703 20.058 15.8703 20.2231C15.8703 20.5555 15.9545 20.8702 16.1279 21.1744C16.1077 21.1744 16.0881 21.1744 16.0665 21.1744C13.9377 21.1744 12.0163 22.2189 11.2869 23.7732C11.0968 24.1775 11 24.5861 11 24.9897C11 25.3821 11.1008 25.7596 11.2984 26.1144C11.7569 26.9346 12.7415 27.5708 14.0721 27.9068C14.7589 28.0802 15.4971 28.1688 16.2634 28.1688C16.952 28.1688 17.6085 28.0799 18.2155 27.9043C20.1079 27.3548 21.3316 25.9616 21.3316 24.3535C21.3313 22.8104 20.8352 21.8865 19.5038 20.9446ZM13.4734 24.477C13.4734 23.3545 14.8995 22.3699 16.525 22.3699H16.5687C16.9224 22.3743 17.2674 22.4263 17.5926 22.526C17.7042 22.603 17.8119 22.6763 17.9152 22.7468C18.6682 23.2598 19.1657 23.5984 19.304 24.1417C19.3366 24.2787 19.3528 24.4156 19.3528 24.5482C19.3528 25.9461 18.3105 26.6546 16.2536 26.6546C14.6946 26.6546 13.4734 25.6986 13.4734 24.477ZM14.9526 13.8704C15.2066 13.5803 15.5393 13.4271 15.9129 13.4271L15.9552 13.4278C17.0105 13.4589 18.0204 14.6349 18.2061 16.0494C18.3105 16.8414 18.1342 17.586 17.736 18.0398C17.4813 18.3306 17.1532 18.4838 16.7645 18.4838C16.7645 18.4838 16.7645 18.4838 16.7638 18.4838H16.7468C15.7131 18.452 14.6816 17.2312 14.497 15.8185C14.3933 15.0288 14.5595 14.3188 14.9526 13.8704Z" fill="#174B5C"/>
</svg>
