<svg width="167" height="31" viewBox="0 0 167 31" fill="none" xmlns="http://www.w3.org/2000/svg">
<g id="Group 10">
<g id="Group">
<g id="Group_2">
<path id="Vector" d="M10.4737 10.2137C10.4737 10.2137 4.68092 10.8653 0.816591 11.301C0.468288 11.3438 0.160316 11.5802 0.0448259 11.9395C-0.070664 12.2988 0.0448256 12.673 0.30147 12.9094C3.17222 15.5698 7.48568 19.5537 7.48568 19.5537C7.48201 19.5537 6.30145 25.3491 5.51685 29.2158C5.45085 29.5658 5.57551 29.9362 5.87615 30.1578C6.17496 30.3793 6.55992 30.383 6.8624 30.2099C10.2428 28.2589 15.306 25.3249 15.306 25.3249C15.306 25.3249 20.371 28.2589 23.7459 30.2118C24.0539 30.383 24.4389 30.3793 24.7377 30.1578C25.0383 29.9362 25.163 29.5658 25.0951 29.2176C24.3105 25.3491 23.1318 19.5537 23.1318 19.5537C23.1318 19.5537 27.4453 15.5698 30.316 12.915C30.5727 12.6711 30.6863 12.2969 30.5727 11.9395C30.459 11.5821 30.151 11.3456 29.8027 11.3047C25.9384 10.8653 20.1437 10.2137 20.1437 10.2137C20.1437 10.2137 17.7423 4.81863 16.1419 1.22189C15.9916 0.899823 15.6763 0.674561 15.306 0.674561C14.9357 0.674561 14.6186 0.901684 14.4756 1.22189C12.8734 4.81863 10.4737 10.2137 10.4737 10.2137Z" fill="#2ABECE"/>
</g>
</g>
<g id="Group_3">
<g id="Group_4">
<path id="Vector_2" d="M44.5695 10.2137C44.5695 10.2137 38.7767 10.8653 34.9124 11.301C34.5641 11.3438 34.2561 11.5802 34.1406 11.9395C34.0251 12.2988 34.1406 12.673 34.3972 12.9094C37.268 15.5698 41.5814 19.5537 41.5814 19.5537C41.5778 19.5537 40.3972 25.3491 39.6126 29.2158C39.5466 29.5658 39.6713 29.9362 39.9719 30.1578C40.2707 30.3793 40.6557 30.383 40.9582 30.2099C44.3385 28.2589 49.4018 25.3249 49.4018 25.3249C49.4018 25.3249 54.4668 28.2589 57.8417 30.2118C58.1497 30.383 58.5346 30.3793 58.8334 30.1578C59.1341 29.9362 59.2587 29.5658 59.1909 29.2176C58.4063 25.3491 57.2276 19.5537 57.2276 19.5537C57.2276 19.5537 61.541 15.5698 64.4118 12.915C64.6684 12.6711 64.7821 12.2969 64.6684 11.9395C64.5548 11.5821 64.2468 11.3456 63.8985 11.3047C60.0342 10.8653 54.2395 10.2137 54.2395 10.2137C54.2395 10.2137 51.838 4.81863 50.2377 1.22189C50.0874 0.899823 49.7721 0.674561 49.4018 0.674561C49.0315 0.674561 48.7143 0.901684 48.5713 1.22189C46.9691 4.81863 44.5695 10.2137 44.5695 10.2137Z" fill="#2ABECE"/>
</g>
</g>
<g id="Group_5">
<g id="Group_6">
<path id="Vector_3" d="M78.6657 10.2137C78.6657 10.2137 72.8729 10.8653 69.0086 11.301C68.6603 11.3438 68.3523 11.5802 68.2368 11.9395C68.1213 12.2988 68.2368 12.673 68.4935 12.9094C71.3642 15.5698 75.6777 19.5537 75.6777 19.5537C75.674 19.5537 74.4934 25.3491 73.7088 29.2158C73.6428 29.5658 73.7675 29.9362 74.0681 30.1578C74.3669 30.3793 74.7519 30.383 75.0544 30.2099C78.4347 28.2589 83.498 25.3249 83.498 25.3249C83.498 25.3249 88.563 28.2589 91.9379 30.2118C92.2458 30.383 92.6308 30.3793 92.9296 30.1578C93.2303 29.9362 93.3549 29.5658 93.2871 29.2176C92.5025 25.3491 91.3238 19.5537 91.3238 19.5537C91.3238 19.5537 95.6372 15.5698 98.508 12.915C98.7646 12.6711 98.8783 12.2969 98.7646 11.9395C98.6509 11.5821 98.343 11.3456 97.9947 11.3047C94.1303 10.8653 88.3357 10.2137 88.3357 10.2137C88.3357 10.2137 85.9342 4.81863 84.3339 1.22189C84.1836 0.899823 83.8683 0.674561 83.498 0.674561C83.1277 0.674561 82.8105 0.901684 82.6675 1.22189C81.0653 4.81863 78.6657 10.2137 78.6657 10.2137Z" fill="#2ABECE"/>
</g>
</g>
<g id="Group_7">
<g id="Group_8">
<path id="Vector_4" d="M112.761 10.2137C112.761 10.2137 106.968 10.8653 103.104 11.301C102.756 11.3438 102.448 11.5802 102.332 11.9395C102.217 12.2988 102.332 12.673 102.589 12.9094C105.46 15.5698 109.773 19.5537 109.773 19.5537C109.77 19.5537 108.589 25.3491 107.804 29.2158C107.738 29.5658 107.863 29.9362 108.164 30.1578C108.462 30.3793 108.847 30.383 109.15 30.2099C112.53 28.2589 117.594 25.3249 117.594 25.3249C117.594 25.3249 122.659 28.2589 126.033 30.2118C126.341 30.383 126.726 30.3793 127.025 30.1578C127.326 29.9362 127.451 29.5658 127.383 29.2176C126.598 25.3491 125.419 19.5537 125.419 19.5537C125.419 19.5537 129.733 15.5698 132.604 12.915C132.86 12.6711 132.974 12.2969 132.86 11.9395C132.747 11.5821 132.439 11.3456 132.09 11.3047C128.226 10.8653 122.431 10.2137 122.431 10.2137C122.431 10.2137 120.03 4.81863 118.429 1.22189C118.279 0.899823 117.964 0.674561 117.594 0.674561C117.223 0.674561 116.906 0.901684 116.763 1.22189C115.161 4.81863 112.761 10.2137 112.761 10.2137Z" fill="#2ABECE"/>
</g>
</g>
<g id="Group_9">
<g id="Group_10">
<path id="Vector_5" d="M146.857 10.2137C146.857 10.2137 141.064 10.8653 137.2 11.301C136.852 11.3438 136.544 11.5802 136.428 11.9395C136.313 12.2988 136.428 12.673 136.685 12.9094C139.555 15.5698 143.869 19.5537 143.869 19.5537C143.865 19.5537 142.685 25.3491 141.9 29.2158C141.834 29.5658 141.959 29.9362 142.259 30.1578C142.558 30.3793 142.943 30.383 143.246 30.2099C146.626 28.2589 151.689 25.3249 151.689 25.3249C151.689 25.3249 156.754 28.2589 160.129 30.2118C160.437 30.383 160.822 30.3793 161.121 30.1578C161.422 29.9362 161.546 29.5658 161.478 29.2176C160.694 25.3491 159.515 19.5537 159.515 19.5537C159.515 19.5537 163.829 15.5698 166.699 12.915C166.956 12.6711 167.07 12.2969 166.956 11.9395C166.842 11.5821 166.534 11.3456 166.186 11.3047C162.322 10.8653 156.527 10.2137 156.527 10.2137C156.527 10.2137 154.126 4.81863 152.525 1.22189C152.375 0.899823 152.06 0.674561 151.689 0.674561C151.319 0.674561 151.002 0.901684 150.859 1.22189C149.257 4.81863 146.857 10.2137 146.857 10.2137Z" fill="#2ABECE"/>
</g>
</g>
</g>
</svg>
