<svg width="40" height="40" viewBox="0 0 40 40" fill="none" xmlns="http://www.w3.org/2000/svg">
<circle cx="20" cy="20" r="20" fill="#CAEAF4"/>
<path d="M20.06 12.2861C15.7465 12.2861 13.5713 15.3786 13.5713 17.9579C13.5713 19.5194 14.1625 20.9085 15.4302 21.4257C15.6382 21.5114 15.8246 21.4288 15.8849 21.1987C15.9268 21.0399 16.0262 20.638 16.0703 20.47C16.131 20.2424 16.1075 20.163 15.9395 19.9639C15.5741 19.5331 15.3401 18.9749 15.3401 18.1837C15.3401 15.8894 17.0568 13.8355 19.8102 13.8355C22.2482 13.8355 23.5878 15.3252 23.5878 17.3144C23.5878 19.9325 22.4292 22.142 20.7096 22.142C19.7597 22.142 19.0491 21.3568 19.2764 20.3932C19.5492 19.2429 20.0778 18.0021 20.0778 17.1712C20.0778 16.4282 19.6787 15.8085 18.8535 15.8085C17.8826 15.8085 17.1025 16.813 17.1025 18.1583C17.1025 19.0152 17.3921 19.595 17.3921 19.595C17.3921 19.595 16.3986 23.805 16.2243 24.5422C15.8776 26.0107 16.1722 27.8103 16.1973 27.9919C16.2119 28.0998 16.3504 28.1259 16.4132 28.0446C16.5024 27.9274 17.6594 26.4999 18.0522 25.0731C18.1636 24.6696 18.6907 22.5779 18.6907 22.5779C19.0062 23.1799 19.9283 23.7088 20.9087 23.7088C23.8268 23.7088 25.8071 21.0485 25.8071 17.4874C25.8074 14.7941 23.5265 12.2861 20.06 12.2861Z" fill="#1A4B5D"/>
</svg>
