<svg width="615" height="557" viewBox="0 0 615 557" fill="none" xmlns="http://www.w3.org/2000/svg">
<g clip-path="url(#clip0_0_71)">
<path d="M615.151 553.837H455.885V548.95C455.885 544.707 457.571 540.637 460.571 537.636C463.572 534.636 467.642 532.95 471.885 532.95H599.151C603.394 532.95 607.464 534.636 610.464 537.636C613.465 540.637 615.151 544.707 615.151 548.95V553.837Z" fill="#E6E6E6"/>
<path d="M531.791 533.925L536.634 531.975C485.957 406.186 490.839 247.493 533.678 111.362C538.766 95.5892 539.133 78.673 534.733 62.6945C530.334 46.7159 521.359 32.3721 508.913 21.4276C484.049 -0.761345 449.769 -6.16676 419.446 7.31934C389.516 20.6333 385.39 43.8243 385.39 66.9025H390.612C390.612 42.2677 395.877 23.519 421.569 12.0905C449.988 -0.548442 482.123 4.52105 505.436 25.3242C517.126 35.6034 525.556 49.0756 529.688 64.0833C533.821 79.091 533.476 94.9795 528.697 109.794C485.364 247.496 480.768 407.28 531.791 533.925Z" fill="#E6E6E6"/>
<path d="M389.307 143.924C399.4 143.924 407.583 135.742 407.583 125.648C407.583 115.554 399.4 107.372 389.307 107.372C379.213 107.372 371.03 115.554 371.03 125.648C371.03 135.742 379.213 143.924 389.307 143.924Z" fill="#E6E6E6"/>
<path d="M361.159 157.509V122.879H366.544V157.509C368.089 158.134 369.368 159.276 370.162 160.741C370.957 162.205 371.217 163.9 370.899 165.536C370.581 167.171 369.704 168.645 368.418 169.705C367.132 170.764 365.518 171.344 363.852 171.344C362.186 171.344 360.571 170.764 359.286 169.705C358 168.645 357.123 167.171 356.804 165.536C356.486 163.9 356.747 162.205 357.541 160.741C358.336 159.276 359.615 158.134 361.159 157.509Z" fill="#E6E6E6"/>
<path d="M335.13 96.275C335.139 88.3145 338.306 80.6827 343.935 75.0538C349.564 69.4249 357.195 66.2586 365.156 66.2495H414.763C422.726 66.2495 430.364 69.4129 435.994 75.0438C441.625 80.6747 444.789 88.3118 444.789 96.275C444.789 104.238 441.625 111.875 435.994 117.506C430.364 123.137 422.726 126.301 414.763 126.301H365.156C357.195 126.291 349.564 123.125 343.935 117.496C338.306 111.867 335.139 104.235 335.13 96.275Z" fill="#2ABECE"/>
<path d="M265.235 282.212C270.216 218.489 295.682 188.129 279.376 169.089C263.756 150.851 219.759 154.619 191.504 172.119C115.291 219.321 87.37 407.452 185.443 499.368C278.638 586.712 455.26 558.737 494.512 487.247C503.67 470.567 510.946 441.325 497.542 423.616C464.263 379.649 343.271 459.285 289.476 409.475C257.596 379.956 262.502 317.183 265.235 282.212Z" fill="#083F4B"/>
<path d="M323.493 250.554C321.642 251.406 320.196 252.946 319.463 254.847C318.731 256.748 318.769 258.86 319.569 260.734C319.738 261.112 319.938 261.476 320.166 261.821L303.808 283.663L311.971 295.863L331.145 263.52C332.503 262.46 333.473 260.981 333.902 259.313C334.331 257.644 334.196 255.881 333.518 254.297C333.123 253.4 332.556 252.589 331.848 251.911C331.14 251.233 330.305 250.701 329.392 250.345C328.478 249.99 327.503 249.818 326.523 249.839C325.543 249.86 324.577 250.074 323.68 250.469C323.617 250.497 323.555 250.525 323.493 250.554Z" fill="#FFB6B6"/>
<path d="M323.48 288.213C324.551 289.162 321.581 290.334 318.44 288.485C317.541 287.95 317.157 287.728 317.056 287.869C316.804 288.223 318.278 290.829 317.884 296.616C317.642 300.07 311.905 306.565 305.39 312.898C296.583 321.463 286.341 329.725 286.341 329.725L282.746 326.846L245.041 296.616L238.678 287.809C239.261 284.331 240.136 280.908 241.294 277.577C242.889 272.967 244.786 268.466 246.97 264.103C248.142 261.73 249.344 259.467 250.495 257.387L270.696 279.648L287.624 298.293C287.624 298.293 292.553 290.354 296.371 288.193C296.858 287.882 297.412 287.691 297.987 287.637C301.845 287.455 302.077 285.354 297.603 280.779C293.129 276.204 298.775 280.476 302.754 279.244C306.734 278.011 302.754 279.244 303.593 276.163C304.431 273.083 315.592 266.901 315.592 266.901L316.056 267.315L324.49 274.759L326.904 276.89C326.904 276.89 324.268 284.122 323.541 285.647C322.813 287.172 322.419 287.253 323.48 288.213Z" fill="#2ABECE"/>
<path d="M545.804 428.521L546.215 417.38L503.439 410.493L502.832 426.935L545.804 428.521Z" fill="#FFB6B6"/>
<path d="M538.039 431.875L537.633 414.037L545.259 414.319L557.57 397.828C558.178 397.014 559.031 396.415 560.003 396.119C560.975 395.823 562.017 395.846 562.975 396.184C563.934 396.522 564.759 397.158 565.331 397.998C565.903 398.838 566.191 399.84 566.153 400.855L565.372 422.045L557.694 425.419L565.184 427.124L564.889 435.113L538.039 431.875Z" fill="#2F2E41"/>
<path d="M305.055 432.858L440.543 436.294C440.543 436.294 499.051 439.673 512.779 430.743L527.255 428.915L528.039 407.652C528.039 407.652 519.187 407.717 514.098 405.346C509.008 402.974 512.545 400.073 507.693 402.926C502.84 405.779 503.353 406.122 499.601 404.811C495.85 403.5 323.806 377.276 323.806 377.276L305.055 432.858Z" fill="#2F2E41"/>
<path d="M483.592 423.631L491.471 415.744L464.796 381.601L453.168 393.243L483.592 423.631Z" fill="#FFB6B6"/>
<path d="M475.619 416.769L487.453 403.417L492.852 408.809L513.093 405.093C514.093 404.91 515.125 405.05 516.039 405.495C516.953 405.939 517.701 406.664 518.174 407.564C518.647 408.464 518.819 409.491 518.667 410.496C518.515 411.501 518.045 412.431 517.326 413.15L502.341 428.153L494.418 425.404L498.75 431.748L493.1 437.405L475.619 416.769Z" fill="#2F2E41"/>
<path d="M251.601 358.657L252.948 389.967C254.533 426.826 295.126 449.135 326.602 429.89C327.182 429.535 327.764 429.168 328.348 428.788C328.348 428.788 340.281 425.583 339.919 420.508C339.557 415.433 342.472 412.964 345.052 414.347C347.631 415.731 381.409 367.795 381.409 367.795C381.409 367.795 451.587 402.801 467.069 411.042C467.069 411.042 481.625 388.283 480.569 388.521C479.514 388.76 393.75 328.733 393.75 328.733C393.75 328.733 379.778 314.593 362.447 323.929C362.086 325.3 362.394 325.348 362.394 325.348L305.142 372L297.052 356.637L251.601 358.657Z" fill="#2F2E41"/>
<path d="M305.582 319.513C305.474 320.96 305.268 322.397 304.966 323.816C304.554 325.87 303.889 327.864 302.987 329.755C302.987 329.755 302.986 331.866 298.946 338.936C294.906 346.006 299.956 342.976 302.987 348.228C306.017 353.47 302.986 351.056 299.623 354.43C298.655 355.412 297.967 356.635 297.631 357.972C297.296 359.31 297.324 360.713 297.714 362.035C297.714 362.035 254.323 362.066 246.243 359.036C238.163 356.006 236.325 338.936 243.567 337.249C250.798 335.563 241.375 333.886 237.123 329.997C232.87 326.109 241.375 319.746 241.375 319.746C241.375 319.746 237.87 313.696 238.163 293.384C238.204 291.516 238.376 289.653 238.678 287.808C239.261 284.33 240.136 280.908 241.294 277.577C242.889 272.966 244.786 268.465 246.97 264.103C248.142 261.73 249.344 259.467 250.495 257.386C250.677 257.063 250.849 256.75 251.031 256.437C253.222 252.559 255.222 249.387 256.545 247.357C257.565 245.781 258.182 244.892 258.182 244.892L265.535 232.105L290.078 243.61L288.684 262.426L292.916 276.617L294.866 283.152L296.371 288.192L298.694 296C298.694 296 298.057 296.03 298.815 297.07C302.304 301.709 304.565 307.152 305.39 312.897C305.681 315.09 305.745 317.307 305.582 319.513Z" fill="#2ABECE"/>
<path d="M376.461 321.541L376.001 321.392L317.257 302.476L338.904 231.459C339.335 230.045 340.081 228.747 341.087 227.663C342.092 226.579 343.331 225.738 344.709 225.202C346.087 224.667 347.568 224.451 349.042 224.571C350.515 224.692 351.942 225.145 353.215 225.897L390.755 248.076C393.727 249.83 395.987 252.572 397.142 255.823C398.297 259.075 398.273 262.629 397.074 265.864L376.461 321.541Z" fill="#2F2E41"/>
<path d="M376.7 326.056L317.483 306.987L339.13 235.97C339.561 234.556 340.308 233.258 341.313 232.174C342.319 231.091 343.557 230.249 344.935 229.714C346.313 229.178 347.795 228.962 349.268 229.083C350.742 229.203 352.169 229.656 353.442 230.408L392.774 250.046C398.683 253.536 398.545 262.569 395.801 269.981L376.7 326.056Z" fill="#2ABECE"/>
<path d="M370.771 331.196C369.408 331.965 367.899 332.443 366.341 332.597C364.783 332.752 363.21 332.582 361.721 332.096L323.871 319.907C320.967 318.958 318.549 316.912 317.134 314.204C315.719 311.497 315.418 308.343 316.296 305.417L335.273 243.162C335.652 241.918 336.276 240.763 337.107 239.763C337.939 238.764 338.962 237.94 340.116 237.341C341.27 236.742 342.532 236.38 343.828 236.275C345.124 236.17 346.428 236.325 347.663 236.731L386.887 249.61C388.756 250.223 390.483 251.205 391.966 252.497C393.45 253.79 394.659 255.366 395.522 257.133C396.386 258.901 396.887 260.823 396.995 262.787C397.103 264.751 396.817 266.717 396.153 268.569L375.863 325.134C374.952 327.702 373.144 329.855 370.771 331.196Z" fill="#3F3D56"/>
<path d="M288.691 232.324C303.663 232.324 315.801 220.186 315.801 205.214C315.801 190.242 303.663 178.104 288.691 178.104C273.718 178.104 261.581 190.242 261.581 205.214C261.581 220.186 273.718 232.324 288.691 232.324Z" fill="#FFB6B6"/>
<path d="M197.017 232.732C199.505 237.555 203.584 241.368 208.563 243.526C210.55 244.431 212.639 245.092 214.785 245.495C215.392 243.089 216.363 240.791 217.664 238.679C217.231 241.059 217.231 243.498 217.664 245.879C220.934 246.146 224.223 245.738 227.327 244.679C230.376 243.642 233.142 241.909 235.404 239.617C237.667 237.325 239.364 234.537 240.361 231.475C242.521 224.289 240.195 216.614 240.011 209.113C239.823 201.611 243.385 192.639 250.832 191.711C256.503 191.003 255.802 191.552 259.877 195.559C254.177 201.891 268.073 229.936 275.529 228.697C279.745 227.996 282.847 224.649 283.681 224.765C287.951 235.221 275.107 250.051 285.294 254.919L284.538 253.919C279.206 245.11 294.983 230.233 289.651 221.425C288.165 218.961 286.619 216.072 287.539 213.346C288.412 210.754 292.832 209.934 293.765 212.293C292.249 206.886 296.481 200.541 302.102 199.989C307.096 199.496 306.808 200.919 311.57 202.218C312.178 200.167 313.055 198.205 314.177 196.384C313.798 198.462 313.751 200.587 314.039 202.68C315.756 202.885 317.493 202.517 318.98 201.634C323.377 198.998 323.508 192.194 320.487 188.053C317.461 183.911 312.393 181.866 307.503 180.318C307.458 169.977 279.631 165.026 274.513 174.641C273.987 166.856 265.063 161.612 257.375 162.934C249.688 164.257 243.623 170.421 239.925 177.291C236.229 184.156 234.393 191.844 231.687 199.156C228.981 206.469 225.112 213.76 218.631 218.099C212.152 222.432 202.522 222.826 197.112 217.209C195.878 219.608 195.226 222.263 195.21 224.96C195.193 227.656 195.813 230.319 197.017 232.732Z" fill="#2F2E41"/>
<path d="M224.834 356.705C225.395 356.256 226.004 355.871 226.649 355.556C237.026 350.391 269.294 336.986 294.526 337.536C343.074 338.594 404.858 392.173 390.479 428.153C379.538 455.531 325.142 471.107 285.436 458.649C229.81 441.197 207.854 370.244 224.834 356.705Z" fill="#082C47"/>
<path d="M23.2917 553.941C7.42818 550.948 -6.6139 479.48 24.5971 444.282C35.2905 432.223 48.629 426.974 66.3717 422.09C168.493 393.975 246.383 420.769 256.85 427.311C267.294 433.839 285.602 532.187 262.19 546.108C249.017 553.941 222.908 557.857 209.972 548.719C190.937 535.273 222.887 500.395 208.666 476.919C192.529 450.278 107.552 441.304 64.948 467.781C19.4942 496.028 113.25 570.912 23.2917 553.941Z" fill="#F2F2F2"/>
<path d="M129.353 432.43H68.7487C53.788 418.092 43.0911 404.274 51.6551 392.804C51.6552 389.507 52.9649 386.345 55.2963 384.014C57.6277 381.682 60.7897 380.373 64.0868 380.373H134.015C137.312 380.373 140.474 381.682 142.805 384.014C145.137 386.345 146.446 389.507 146.446 392.804C149.707 405.874 143.882 419.084 129.353 432.43Z" fill="#CCCCCC"/>
<path d="M118.469 364.722C117.894 364.749 117.325 364.598 116.838 364.29C116.352 363.982 115.972 363.532 115.75 363.001C115.528 362.47 115.474 361.883 115.597 361.321C115.719 360.759 116.012 360.247 116.434 359.857L116.627 359.092C116.601 359.031 116.576 358.969 116.55 358.908C115.971 357.54 115 356.373 113.76 355.555C112.52 354.737 111.066 354.303 109.58 354.308C108.094 354.314 106.643 354.758 105.409 355.586C104.175 356.414 103.213 357.587 102.643 358.96C100.369 364.438 97.4731 369.925 96.7601 375.718C96.446 378.278 96.5785 380.873 97.1516 383.388C91.8094 371.735 89.0353 359.069 89.0175 346.249C89.0164 343.033 89.1951 339.818 89.5528 336.621C89.8485 334 90.2587 331.398 90.7834 328.815C93.6467 314.797 99.7944 301.658 108.721 290.477C113.042 288.12 116.536 284.495 118.733 280.09C119.529 278.507 120.092 276.817 120.403 275.072C119.916 275.136 118.566 267.713 118.933 267.258C118.254 266.227 117.038 265.715 116.296 264.709C112.607 259.707 107.524 260.58 104.87 267.377C99.2015 270.238 99.1466 274.983 102.625 279.547C104.838 282.45 105.142 286.378 107.084 289.486C106.884 289.742 106.676 289.99 106.476 290.246C102.825 294.941 99.642 299.983 96.974 305.299C97.6228 299.344 96.8485 293.319 94.7146 287.721C92.5519 282.503 88.4982 278.11 84.9286 273.599C80.6407 268.182 71.8482 270.546 71.0928 277.414C71.0855 277.48 71.0783 277.547 71.0714 277.613C71.6016 277.912 72.1206 278.23 72.6284 278.565C73.2664 278.992 73.7608 279.601 74.0467 280.313C74.3327 281.025 74.3969 281.806 74.2309 282.556C74.0649 283.305 73.6765 283.986 73.1166 284.511C72.5567 285.035 71.8514 285.378 71.0931 285.495L71.0155 285.507C71.2044 287.418 71.5382 289.312 72.0142 291.173C67.4347 308.883 77.3216 315.333 91.4386 315.623C91.7502 315.783 92.0539 315.942 92.3655 316.094C89.6849 323.691 88.0035 331.603 87.3636 339.633C87.0013 344.371 87.0226 349.13 87.4275 353.864L87.4035 353.696C86.3807 348.432 83.5725 343.682 79.4531 340.249C73.3349 335.223 64.691 333.372 58.0906 329.332C57.3891 328.882 56.5734 328.642 55.7398 328.639C54.9062 328.637 54.0895 328.874 53.3858 329.321C52.6821 329.768 52.121 330.407 51.7685 331.162C51.416 331.917 51.2868 332.758 51.3963 333.584C51.4052 333.643 51.4142 333.702 51.4233 333.761C52.4073 334.161 53.3653 334.623 54.2918 335.143C54.822 335.442 55.3411 335.76 55.8489 336.095C56.4868 336.522 56.9812 337.131 57.2671 337.843C57.553 338.555 57.6172 339.336 57.4513 340.085C57.2853 340.835 56.8969 341.516 56.337 342.041C55.7771 342.565 55.0719 342.909 54.3136 343.025L54.2358 343.037C54.1799 343.045 54.132 343.053 54.0761 343.061C55.7573 347.076 58.1169 350.77 61.0516 353.984C63.915 369.444 76.2135 370.911 89.3691 366.409H89.3771C90.8205 372.681 92.9119 378.787 95.6175 384.627H117.91C117.99 384.379 118.062 384.123 118.134 383.876C116.071 384.005 113.999 383.882 111.966 383.508C113.62 381.479 115.274 379.433 116.928 377.403C116.964 377.366 116.999 377.325 117.031 377.284C117.87 376.245 118.717 375.214 119.556 374.175L119.557 374.174C119.602 370.99 119.236 367.814 118.47 364.723L118.469 364.722Z" fill="#CCCCCC"/>
<path d="M194.505 429.183C194.875 430.259 195.577 431.191 196.509 431.844C197.441 432.497 198.556 432.838 199.694 432.818L221.927 432.245C223.074 432.223 224.182 431.83 225.087 431.126C225.991 430.421 226.644 429.443 226.947 428.337L230.093 394.695C231.209 395.2 232.424 395.45 233.649 395.425C235.799 395.371 237.839 394.466 239.321 392.907C240.803 391.349 241.605 389.266 241.551 387.116C241.497 384.967 240.592 382.926 239.033 381.444C237.475 379.963 235.392 379.16 233.242 379.214C232.753 379.213 232.264 379.264 231.785 379.366C231.265 378.802 230.632 378.354 229.927 378.05C229.223 377.746 228.462 377.593 227.695 377.601L193.496 378.484C193.212 378.494 192.93 378.529 192.652 378.589C191.902 378.729 191.191 379.027 190.566 379.465C189.941 379.903 189.417 380.469 189.03 381.127C188.642 381.784 188.4 382.516 188.32 383.275C188.239 384.034 188.322 384.801 188.562 385.525L194.505 429.183ZM230.738 392.41L232.977 384.393C233.231 383.467 233.237 382.49 232.994 381.561C233.102 381.561 233.198 381.509 233.307 381.509C234.842 381.478 236.326 382.056 237.435 383.118C238.545 384.179 239.187 385.637 239.223 387.172C239.259 388.706 238.685 390.193 237.627 391.305C236.569 392.417 235.113 393.064 233.578 393.105C232.586 393.136 231.604 392.896 230.738 392.41Z" fill="#CCCCCC"/>
<path d="M192.652 378.589C193.381 382.755 201.572 385.683 211.422 385.174C220.48 384.757 227.886 381.577 229.243 377.807C228.741 377.659 228.218 377.589 227.695 377.601L193.496 378.484C193.212 378.494 192.93 378.53 192.652 378.589Z" fill="white"/>
<path d="M-63.8093 555.518L684.941 555.825C685.256 555.825 685.559 555.7 685.783 555.477C686.006 555.253 686.131 554.951 686.131 554.635C686.131 554.319 686.006 554.016 685.783 553.793C685.559 553.57 685.256 553.444 684.941 553.444L-63.8093 553.137C-64.1251 553.137 -64.428 553.262 -64.6513 553.485C-64.8746 553.709 -65 554.012 -65 554.327C-65 554.643 -64.8746 554.946 -64.6513 555.169C-64.428 555.393 -64.1251 555.518 -63.8093 555.518Z" fill="#CACACA"/>
<path d="M356.141 289.414C354.105 289.488 352.178 290.354 350.771 291.827C349.363 293.3 348.586 295.265 348.605 297.302C348.615 297.716 348.66 298.129 348.738 298.535L325.24 312.409L328.084 326.809L358.219 304.324C359.881 303.869 361.344 302.876 362.382 301.501C363.42 300.126 363.974 298.446 363.956 296.723C363.937 295.743 363.725 294.777 363.332 293.878C362.939 292.98 362.373 292.168 361.666 291.489C360.96 290.81 360.126 290.276 359.213 289.919C358.301 289.561 357.326 289.387 356.346 289.407C356.278 289.408 356.209 289.41 356.141 289.414Z" fill="#FFB6B6"/>
<path d="M336.892 322.487C336.263 321.645 335.993 321.292 335.85 321.389C335.482 321.611 335.836 324.586 333.248 329.772C329.605 337.056 291.404 348.214 291.404 348.214L286.701 339.603L266.013 301.764L258.882 271.434C258.633 270.376 258.512 269.293 258.522 268.206C264.879 263.732 271.631 259.846 278.693 256.595C281.515 258.196 283.666 260.759 284.753 263.816L298.994 303.745L304.677 319.687C304.677 319.687 314.701 312.519 318.337 313.835C321.967 315.159 322.999 313.302 320.626 307.36C318.253 301.417 321.815 307.534 325.959 307.923C330.113 308.318 325.959 307.923 327.921 305.401C329.883 302.88 342.566 301.461 342.566 301.461L342.835 302.024L347.75 312.134L349.157 315.039C349.157 315.039 343.947 320.692 342.69 321.819C341.427 322.954 341.036 322.875 341.655 324.168C342.265 325.456 339.075 325.397 336.892 322.487Z" fill="#2ABECE"/>
</g>
<defs>
<clipPath id="clip0_0_71">
<rect width="615" height="555.335" fill="white" transform="translate(0 0.83252)"/>
</clipPath>
</defs>
</svg>
