<svg width="40" height="40" viewBox="0 0 40 40" fill="none" xmlns="http://www.w3.org/2000/svg">
<circle cx="20" cy="20" r="20" fill="#CAEAF4"/>
<path d="M28.5 13.0075C27.7818 13.5141 26.9866 13.9016 26.145 14.155C25.6933 13.6357 25.093 13.2676 24.4253 13.1005C23.7576 12.9334 23.0546 12.9754 22.4116 13.2209C21.7685 13.4663 21.2163 13.9033 20.8297 14.4728C20.4431 15.0423 20.2408 15.7168 20.25 16.405V17.155C18.932 17.1892 17.626 16.8969 16.4483 16.3041C15.2706 15.7114 14.2577 14.8365 13.5 13.7575C13.5 13.7575 10.5 20.5075 17.25 23.5075C15.7054 24.556 13.8654 25.0817 12 25.0075C18.75 28.7575 27 25.0075 27 16.3825C26.9993 16.1736 26.9792 15.9652 26.94 15.76C27.7055 15.0052 28.2456 14.0521 28.5 13.0075V13.0075Z" stroke="#194C5D" stroke-width="2" stroke-linecap="round" stroke-linejoin="round"/>
</svg>
